<?xml version="1.0" ?>
<!-- Uploaded to: SVG Repo, www.svgrepo.com, Generator: SVG Repo Mixer Tools -->
<svg fill="#000000" width="800px" height="800px" viewBox="0 0 100 100" version="1.1" xml:space="preserve" xmlns="http://www.w3.org/2000/svg" xmlns:xlink="http://www.w3.org/1999/xlink">
<style type="text/css">
	.st0{display:none;}
	.st1{display:inline;fill:none;}
</style>
<g class="st0" id="bounding_squares">
<rect class="st1" height="100" id="XMLID_40_" width="100"/>
</g>
<g id="icons">
<path d="M75,73H64.152771C64.37146,72.6793823,64.5,72.2923584,64.5,71.875v-8.6181641   c0-9.0830078-3.5371094-17.6220703-9.9599609-24.0449219l-2.7417603-2.7417603C51.9255981,35.7901001,52,35.0914917,52,34.375   C52,28.1025391,46.8969727,23,40.625,23S29.25,28.1025391,29.25,34.375S34.3530273,45.75,40.625,45.75   c4.010376,0,7.5350952-2.0914307,9.5611572-5.2357178l0.6505127,0.6505127L45.4335938,57.375H28.125   c-0.5504761,0-1.0487061,0.2227783-1.4103394,0.5826416c-0.0010986,0.0010376-0.0026245,0.0012207-0.0037231,0.0023193   l-0.9160156,0.9160156C23.9926758,60.6787109,23,63.0761719,23,65.625c0,1.1044922,0.8955078,2,2,2s2-0.8955078,2-2   c0-1.4804688,0.5766602-2.8730469,1.6235352-3.9199219L28.9537964,61.375h3.7891846   c-0.3519287,0.5110474-0.4658203,1.1558838-0.2654419,1.7578125L40.9750977,88.625H37.5c-1.1044922,0-2,0.8955078-2,2   s0.8955078,2,2,2h6.25c0.6430664,0,1.246582-0.3085938,1.6225586-0.8310547   c0.3759766-0.5214844,0.4780273-1.1914063,0.2749023-1.8017578l-8.1103516-24.3300781L59.550354,73H50   c-1.1044922,0-2,0.8955078-2,2v15.625c0,1.1044922,0.8955078,2,2,2h25c1.1044922,0,2-0.8955078,2-2V75   C77,73.8955078,76.1044922,73,75,73z M40.625,41.75c-4.0664063,0-7.375-3.3085938-7.375-7.375S36.5585938,27,40.625,27   S48,30.3085938,48,34.375S44.6914063,41.75,40.625,41.75z M37.324707,61.375H46.875   c0.8608398,0,1.625-0.5507813,1.8974609-1.3671875l5.1603394-15.4810181C58.1851807,49.8273926,60.5,56.3629761,60.5,63.2568359   v5.8432617L37.324707,61.375z M73,88.625H52V77h21V88.625z"/>
</g>
</svg>