<?xml version="1.0" ?>
<!-- Uploaded to: SVG Repo, www.svgrepo.com, Generator: SVG Repo Mixer Tools -->
<svg fill="#000000" width="800px" height="800px" viewBox="0 0 100 100" version="1.1" xml:space="preserve" xmlns="http://www.w3.org/2000/svg" xmlns:xlink="http://www.w3.org/1999/xlink">
<style type="text/css">
	.st0{display:none;}
	.st1{display:inline;fill:none;}
</style>
<g class="st0" id="bounding_squares">
<rect class="st1" height="100" id="XMLID_28_" width="100"/>
</g>
<g id="icons">
<path d="M92.625,40.625c0-1.1044922-0.8955078-2-2-2s-2,0.8955078-2,2c0,2.34375-1.90625,4.25-4.25,4.25H63.7432861   C67.8532715,43.1588135,70.75,39.1000977,70.75,34.375C70.75,28.1025391,65.6474609,23,59.375,23S48,28.1025391,48,34.375   c0,4.0106812,2.0914307,7.5352173,5.2356567,9.5612183L36.0872192,61.0846558   c-0.0007935,0.0007935-0.00177,0.00177-0.0025635,0.0025635L11.0859375,86.0859375   C10.6953125,86.4765625,10.5,86.9882813,10.5,87.5v3.125c0,2.8261719,2.2988281,5.125,5.125,5.125c1.1044922,0,2-0.8955078,2-2   s-0.8955078-2-2-2c-0.6201172,0-1.125-0.5048828-1.125-1.125v-2.296875l21-21v13.09375L23.5872192,92.3346558   C23.2245483,92.6966553,23,93.1970825,23,93.75c0,1.1044922,0.8955078,2,2,2h6.25c1.1044922,0,2-0.8955078,2-2s-0.8955078-2-2-2   h-1.421875l9.0859375-9.0859375C39.2890625,82.2890625,39.5,81.7802734,39.5,81.25V63.328125l13.6883545-13.6883545   C57.3895874,53.1875,62.6512451,55.125,68.2138672,55.125H84.375c1.1044922,0,2-0.8955078,2-2s-0.8955078-2-2-2H68.2138672   c-3.21521,0-6.3096924-0.7810059-9.069397-2.25H84.375C88.9238281,48.875,92.625,45.1738281,92.625,40.625z M59.375,27   c4.0664063,0,7.375,3.3085938,7.375,7.375s-3.3085938,7.375-7.375,7.375S52,38.4414063,52,34.375S55.3085938,27,59.375,27z"/>
</g>
</svg>